<?xml version="1.0" encoding="utf-8"?>
<!-- Generator: Adobe Illustrator 16.0.0, SVG Export Plug-In . SVG Version: 6.00 Build 0)  -->
<!DOCTYPE svg PUBLIC "-//W3C//DTD SVG 1.1//EN" "http://www.w3.org/Graphics/SVG/1.1/DTD/svg11.dtd">
<svg version="1.1" id="Layer_1" xmlns="http://www.w3.org/2000/svg" xmlns:xlink="http://www.w3.org/1999/xlink" x="0px" y="0px"
	 width="153.293px" height="65.906px" viewBox="0 0 153.293 65.906" enable-background="new 0 0 153.293 65.906"
	 xml:space="preserve">
<g>
	<g>
		<path fill-rule="evenodd" clip-rule="evenodd" fill="#25A198" d="M145.087,42.842c0-0.552,0-1.104,0-1.655
			c0-7.194,0.02-14.387-0.02-21.58c-0.006-1.099,0.327-1.49,1.436-1.433c1.582,0.08,3.17,0.019,4.79,0.019
			c0,11.934,0,23.651,0,35.573c-1.978,0-3.942,0.036-5.901-0.036c-0.3-0.012-0.639-0.48-0.862-0.803
			c-5.477-7.943-10.941-15.897-16.411-23.846c-0.037-0.054-0.125-0.073-0.351-0.196c-0.038,0.373-0.094,0.674-0.094,0.977
			c0.002,7.649,0.001,15.299,0.034,22.949c0.003,0.753-0.21,1.013-0.966,0.985c-1.369-0.047-2.74-0.034-4.11-0.003
			c-0.671,0.012-0.947-0.209-0.945-0.922c0.018-11.189,0.02-22.377,0.004-33.568c-0.001-0.826,0.257-1.167,1.125-1.127
			c1.291,0.06,2.595-0.067,3.877,0.057c0.544,0.053,1.237,0.41,1.544,0.85c5.383,7.731,10.718,15.499,16.066,23.255
			c0.144,0.207,0.324,0.387,0.488,0.58C144.89,42.894,144.989,42.868,145.087,42.842z"/>
		<path fill-rule="evenodd" clip-rule="evenodd" fill="#25A198" d="M71.441,35.973c0.001-5.477,0.022-10.956-0.02-16.434
			c-0.006-1.031,0.272-1.388,1.354-1.369c3.728,0.063,7.458-0.058,11.183,0.046c3.844,0.107,7.535,0.948,10.819,3.062
			c3.871,2.492,5.917,6.148,6.761,10.615c0.687,3.632,0.487,7.203-0.569,10.702c-1.401,4.642-4.391,7.884-8.956,9.641
			c-3.023,1.164-6.147,1.605-9.374,1.557c-3.347-0.05-6.696-0.034-10.043,0.005c-0.881,0.011-1.184-0.238-1.177-1.162
			C71.463,47.082,71.441,41.527,71.441,35.973z M77.736,36.082c0,3.804,0.009,7.605-0.009,11.408
			c-0.003,0.564,0.029,0.988,0.743,0.973c2.993-0.062,6.012,0.283,8.949-0.581c2.274-0.669,4.231-1.801,5.667-3.766
			c2.122-2.904,2.454-6.202,2.263-9.635c-0.321-5.794-4.03-9.913-9.791-10.648c-2.134-0.272-4.318-0.141-6.473-0.277
			c-1.063-0.068-1.386,0.289-1.37,1.348C77.772,28.628,77.737,32.356,77.736,36.082z"/>
		<path fill-rule="evenodd" clip-rule="evenodd" fill="#25A198" d="M45.602,48.155c2.009,0,3.945,0,5.88,0
			c4.073-0.001,8.146,0.019,12.219-0.018c0.822-0.008,1.198,0.205,1.167,1.077c-0.044,1.217-0.043,2.438,0.001,3.654
			c0.024,0.706-0.242,0.926-0.928,0.925c-7.917-0.016-15.835-0.018-23.752,0.002c-0.818,0.002-1.021-0.309-1.021-1.084
			c0.023-11.078,0.026-22.155-0.003-33.232c-0.002-1.001,0.308-1.31,1.308-1.305c7.613,0.035,15.226,0.037,22.84,0
			c1.065-0.005,1.437,0.354,1.368,1.39c-0.064,0.986-0.063,1.982,0,2.968c0.067,1.041-0.318,1.391-1.376,1.383
			c-5.52-0.044-11.041,0.004-16.56-0.045c-0.984-0.008-1.323,0.198-1.283,1.248c0.088,2.28,0.058,4.567,0.009,6.851
			c-0.018,0.899,0.168,1.253,1.193,1.239c4.872-0.063,9.746-0.003,14.618-0.049c1.067-0.01,1.553,0.258,1.428,1.404
			c-0.09,0.828-0.078,1.678-0.001,2.509c0.099,1.091-0.376,1.361-1.393,1.353c-4.911-0.042-9.822,0.002-14.731-0.045
			c-0.859-0.009-1.127,0.215-1.114,1.076c0.045,2.587,0.011,5.176,0.017,7.765C45.488,47.512,45.557,47.804,45.602,48.155z"/>
		<path fill-rule="evenodd" clip-rule="evenodd" fill="#25A198" d="M20.344,17.441c4.25,0.12,8.09,1.343,11.582,3.729
			c0.772,0.528,0.944,0.927,0.26,1.683c-0.788,0.871-1.49,1.831-2.14,2.809c-0.468,0.704-0.863,0.642-1.475,0.203
			c-2.07-1.484-4.342-2.429-6.918-2.672c-5.376-0.508-10.205,1.997-12.072,6.8c-1.879,4.833-1.566,9.608,1.235,14.071
			c1.825,2.91,4.628,4.307,7.944,4.74c3.909,0.509,7.356-0.6,10.3-3.199c0.584-0.516,0.9-0.479,1.384,0.086
			c0.813,0.95,1.691,1.85,2.574,2.739c0.559,0.561,0.525,0.927-0.101,1.465c-4.19,3.592-9.049,4.841-14.484,4.445
			c-4.057-0.296-7.597-1.687-10.618-4.392c-2.879-2.578-4.577-5.848-5.302-9.597c-0.335-1.727-0.557-3.52-0.507-5.273
			c0.23-8.266,5.339-15.346,13.952-17.017C17.406,17.781,18.882,17.645,20.344,17.441z"/>
		<path fill-rule="evenodd" clip-rule="evenodd" fill="#25A198" d="M107.771,35.971c0-5.476,0.024-10.953-0.021-16.429
			c-0.009-1.043,0.29-1.437,1.357-1.368c1.25,0.081,2.514,0.097,3.761-0.002c1.12-0.088,1.341,0.386,1.336,1.385
			c-0.029,7.987-0.017,15.973-0.017,23.959c0,3.042-0.034,6.087,0.021,9.127c0.018,0.933-0.307,1.191-1.184,1.155
			c-1.367-0.057-2.74-0.055-4.106-0.001c-0.887,0.036-1.175-0.241-1.169-1.169C107.794,47.076,107.772,41.524,107.771,35.971z"/>
		<path fill-rule="evenodd" clip-rule="evenodd" fill="#25A198" d="M52.022,59.31c3.806-0.001,7.612,0.029,11.418-0.02
			c1.035-0.012,1.456,0.284,1.357,1.365c-0.088,0.98-0.086,1.982,0.001,2.965c0.094,1.053-0.366,1.29-1.317,1.285
			c-5.52-0.03-11.039-0.018-16.559-0.018c-2.208,0-4.416-0.017-6.623,0.013c-0.814,0.011-1.182-0.252-1.133-1.125
			c0.062-1.1,0.066-2.21,0-3.309c-0.056-0.935,0.346-1.176,1.207-1.169C44.257,59.325,48.14,59.31,52.022,59.31z"/>
	</g>
	<g>
		<path fill="#414042" d="M9.556,1.202v0.566H5.287v3.131h3.087v0.565H5.287v4.496H3.816V1.202H9.556z"/>
		<path fill="#414042" d="M13.58,1l4.124,8.959h-1.496l-1.339-2.924h-3.753L9.732,9.959H8.997L13.216,1H13.58z M11.373,6.471h3.227
			l-1.59-3.465L11.373,6.471z"/>
		<path fill="#414042" d="M19.931,5.609c0,0.616,0.092,1.167,0.276,1.654c0.184,0.485,0.438,0.897,0.761,1.235
			c0.322,0.337,0.705,0.595,1.146,0.774c0.443,0.178,0.921,0.267,1.438,0.267c0.307,0,0.602-0.06,0.885-0.179
			c0.286-0.12,0.552-0.274,0.796-0.465c0.246-0.191,0.465-0.407,0.657-0.648c0.194-0.241,0.353-0.484,0.478-0.732l0.615,0.396
			c-0.18,0.294-0.393,0.577-0.637,0.849c-0.246,0.272-0.53,0.513-0.852,0.72c-0.324,0.208-0.688,0.375-1.095,0.5
			c-0.406,0.126-0.86,0.189-1.365,0.189c-0.48,0-0.936-0.056-1.364-0.167c-0.427-0.111-0.819-0.265-1.179-0.465
			c-0.358-0.199-0.678-0.439-0.961-0.72c-0.284-0.281-0.522-0.589-0.717-0.927c-0.195-0.337-0.346-0.698-0.449-1.084
			c-0.105-0.386-0.157-0.784-0.157-1.195c0-0.41,0.053-0.81,0.159-1.198c0.108-0.388,0.26-0.752,0.46-1.094
			c0.199-0.342,0.443-0.656,0.732-0.94c0.29-0.285,0.616-0.529,0.979-0.732c0.361-0.204,0.759-0.361,1.191-0.475
			C22.16,1.057,22.62,1,23.112,1c0.465,0,0.894,0.063,1.286,0.189c0.392,0.125,0.75,0.292,1.074,0.5
			c0.326,0.208,0.615,0.448,0.866,0.719c0.251,0.273,0.467,0.556,0.646,0.849L26.35,3.685c-0.369-0.709-0.78-1.228-1.232-1.559
			c-0.452-0.331-0.973-0.498-1.56-0.498c-0.507,0-0.98,0.093-1.42,0.277s-0.823,0.449-1.151,0.792
			c-0.328,0.344-0.584,0.761-0.773,1.251C20.025,4.439,19.931,4.993,19.931,5.609z"/>
		<path fill="#414042" d="M28.651,1.202h1.471v5.684c0,0.373,0.063,0.724,0.191,1.052c0.129,0.329,0.312,0.617,0.551,0.865
			c0.239,0.247,0.526,0.442,0.861,0.584c0.335,0.143,0.711,0.214,1.125,0.214c0.419,0,0.797-0.071,1.131-0.214
			c0.335-0.142,0.621-0.337,0.855-0.584c0.234-0.248,0.415-0.536,0.541-0.865c0.125-0.329,0.189-0.68,0.189-1.052V1.202h0.646v5.684
			c0,0.447-0.071,0.871-0.216,1.266c-0.145,0.396-0.373,0.744-0.682,1.043c-0.311,0.3-0.708,0.538-1.192,0.711
			c-0.484,0.174-1.066,0.261-1.745,0.261c-0.603,0-1.138-0.087-1.603-0.261c-0.466-0.173-0.855-0.412-1.169-0.713
			c-0.314-0.302-0.554-0.654-0.714-1.056c-0.161-0.402-0.241-0.83-0.241-1.283V1.202z"/>
		<path fill="#414042" d="M38.257,1.202h1.472v8.192h4.407v0.566h-5.879V1.202z"/>
		<path fill="#414042" d="M45.361,1.202h2.911c0.901,0,1.676,0.083,2.323,0.251c0.648,0.167,1.187,0.436,1.619,0.805
			c0.495,0.419,0.866,0.902,1.115,1.449c0.25,0.547,0.375,1.145,0.375,1.795c0,0.616-0.113,1.195-0.336,1.735
			c-0.226,0.541-0.553,1.014-0.982,1.418c-0.43,0.405-0.959,0.723-1.59,0.955c-0.632,0.233-1.353,0.35-2.166,0.35h-3.27V1.202z
			 M46.833,9.318h1.559c0.494,0,0.959-0.081,1.396-0.245c0.436-0.165,0.816-0.406,1.141-0.727c0.324-0.32,0.58-0.717,0.767-1.188
			c0.187-0.472,0.28-1.016,0.28-1.632c0-0.536-0.088-1.029-0.263-1.48c-0.176-0.451-0.423-0.838-0.739-1.163
			c-0.317-0.325-0.695-0.579-1.132-0.761c-0.438-0.182-0.918-0.273-1.438-0.273h-1.571V9.318z"/>
		<path fill="#414042" d="M58.653,1l4.124,8.959h-1.497l-1.339-2.924h-3.754l-1.383,2.924h-0.736L58.289,1H58.653z M56.446,6.471
			h3.225l-1.59-3.465L56.446,6.471z"/>
		<path fill="#414042" d="M63.908,1.202h2.911c0.902,0,1.676,0.083,2.324,0.251c0.647,0.167,1.188,0.436,1.619,0.805
			c0.496,0.419,0.867,0.902,1.116,1.449c0.25,0.547,0.375,1.145,0.375,1.795c0,0.616-0.113,1.195-0.337,1.735
			c-0.226,0.541-0.551,1.014-0.981,1.418c-0.43,0.405-0.96,0.723-1.59,0.955c-0.632,0.233-1.354,0.35-2.167,0.35h-3.27V1.202z
			 M65.38,9.318h1.559c0.494,0,0.959-0.081,1.396-0.245c0.437-0.165,0.816-0.406,1.14-0.727c0.326-0.32,0.581-0.717,0.767-1.188
			c0.187-0.472,0.281-1.016,0.281-1.632c0-0.536-0.088-1.029-0.265-1.48c-0.176-0.451-0.422-0.838-0.738-1.163
			c-0.317-0.325-0.694-0.579-1.132-0.761c-0.439-0.182-0.917-0.273-1.436-0.273H65.38V9.318z"/>
		<path fill="#414042" d="M80.162,1.202v0.566h-4.616v3.131h3.087v0.565h-3.087v3.93h4.616v0.566h-6.087V1.202H80.162z"/>
	</g>
</g>
</svg>
